<?xml version="1.0" encoding="utf-8"?>
<!-- Generator: Adobe Illustrator 28.0.0, SVG Export Plug-In . SVG Version: 6.00 Build 0)  -->
<svg version="1.1" id="Layer_1" xmlns="http://www.w3.org/2000/svg" xmlns:xlink="http://www.w3.org/1999/xlink" x="0px" y="0px"
	 viewBox="0 0 180 180" style="enable-background:new 0 0 180 180;" xml:space="preserve">
<style type="text/css">
	.st0{fill:#3DBD96;}
</style>
<g>
	<path class="st0" d="M167.5,41.6c-1.9-10.4-11-18.3-21.9-18.3h-13.9V9.4c0-4.6-3.7-8.3-8.3-8.3c-4.6,0-8.3,3.7-8.3,8.3v13.9H65V9.4
		c0-4.6-3.7-8.3-8.3-8.3c-4.6,0-8.3,3.7-8.3,8.3v13.9H34.4c-10.4,0-19.2,7.1-21.6,16.8c-0.4,1.7-0.7,3.6-0.7,5.5v111.2
		c0,12.3,10,22.2,22.3,22.2h111.2c12.3,0,22.3-10,22.3-22.2V45.6C167.9,44.2,167.8,42.9,167.5,41.6z M29,49.8c0-0.7,0.1-1.4,0.2-2
		v-4.5c0-3.1,2.5-5.6,5.5-5.6h110.7c3.1,0,5.5,2.5,5.5,5.6v6.5c0,0.2,0,0.4,0,0.7v2.3H29V49.8z M34.4,162.4c-3.1,0-5.6-2.5-5.6-5.6
		v-89h122.4v89c0,3.1-2.5,5.6-5.6,5.6H34.4z"/>
</g>
</svg>
