<?xml version="1.0" encoding="utf-8"?>
<!-- Generator: Adobe Illustrator 28.0.0, SVG Export Plug-In . SVG Version: 6.00 Build 0)  -->
<svg version="1.1" id="Layer_1" xmlns="http://www.w3.org/2000/svg" xmlns:xlink="http://www.w3.org/1999/xlink" x="0px" y="0px"
	 viewBox="0 0 180 180" style="enable-background:new 0 0 180 180;" xml:space="preserve">
<style type="text/css">
	.st0{fill:#3DBD96;}
</style>
<g>
	<path class="st0" d="M81.8,174.8C63.6,152.5,23.2,98.4,23.2,68C23.2,31.1,53.1,1.2,90,1.2c36.9,0,66.8,29.9,66.8,66.8
		c0,30.4-40.7,84.5-58.5,106.8C94,180.1,86,180.1,81.8,174.8z M134.7,87.9c3.8-8.9,5.3-15.6,5.3-19.9c0-27.6-22.4-50.1-50.1-50.1
		c-27.6,0-50.1,22.4-50.1,50.1c0,4.3,1.6,11,5.3,19.9c3.6,8.6,8.8,18.1,14.8,27.8c9.9,16.1,21.3,31.3,30,42.6
		c8.6-11.3,20.1-26.6,30-42.6C125.9,106,131.1,96.5,134.7,87.9z"/>
</g>
</svg>
